<svg xmlns="http://www.w3.org/2000/svg" xmlns:xlink="http://www.w3.org/1999/xlink" width="520" height="519.997" viewBox="0 0 520 519.997"><defs><linearGradient id="a" x1="0.5" x2="0.5" y2="1" gradientUnits="objectBoundingBox"><stop offset="0" stop-color="#fff"/><stop offset="1" stop-color="#fff"/></linearGradient></defs><g transform="translate(535 3091.313)"><g transform="translate(340 -52.313)"><circle cx="259.999" cy="259.999" r="259.999" transform="translate(-875 -3039)" fill="none"/><path d="M466.021,600.459a261.918,261.918,0,0,1-52.4-5.282,258.576,258.576,0,0,1-92.969-39.122,260.759,260.759,0,0,1-94.2-114.393,258.69,258.69,0,0,1-15.15-48.8,262.575,262.575,0,0,1-.52-102.185A258.461,258.461,0,0,1,246.2,201.55,261.721,261.721,0,0,1,275.068,164H656.974a260.164,260.164,0,0,1,50.594,80.072,258.764,258.764,0,0,1,13.691,46.6,262.581,262.581,0,0,1-.52,102.185,258.576,258.576,0,0,1-39.121,92.969,260.758,260.758,0,0,1-114.392,94.2,258.692,258.692,0,0,1-48.8,15.15A261.918,261.918,0,0,1,466.021,600.459Z" transform="translate(-1081.021 -3119.708)" fill="#ffcc4c"/><path d="M265.739-242.533q0,42.6-47.634,53.83l9.682,3.873q30.207,12.005,39.888,31.756a70.794,70.794,0,0,1,7.358,31.368q0,36.79-26.528,57.122T174.345-44.253q-15.1,0-31.756-1.162l-27.5-1.936q-10.843-.775-23.623-.775-9.294,0-27.109,1.936T38.8-44.253H35.7Q23.311-44.253,15.76-52T8.208-72.524q0-10.843,6-18.2t14.91-7.358a45.806,45.806,0,0,1,9.488,1.355,45.2,45.2,0,0,0,9.1,1.355q10.456,0,10.456-26.334V-228.979q0-25.947-10.456-25.947a45.2,45.2,0,0,0-9.1,1.355,45.806,45.806,0,0,1-9.488,1.355q-8.907,0-14.91-7.358t-6-18.2q0-12.78,7.552-20.719T35.7-306.432h1.549a6.339,6.339,0,0,0,1.549.387l27.5,2.711q11.618,1.162,30.981,1.162,15.1,0,24.01-.775l26.334-2.324q8.907-.775,25.947-.775,25.56,0,46.085,5.422a61.388,61.388,0,0,1,33.3,21.493A57.207,57.207,0,0,1,265.739-242.533ZM124.775-216.586q0,7.745,3.1,9.682,1.936,1.549,9.682,1.549H149.56q20.138,0,31.949-7.358t11.812-19.751q0-25.947-40.276-25.947-14.716,0-20.138,2.324-8.133,3.873-8.133,16.652Zm77.84,92.169q0-15.878-14.329-25.56t-37.952-9.682H138.716q-8.52,0-11.231,2.517t-2.711,9.488v28.27q0,14.716,8.52,20.331t30.981,5.615q17.04,0,27.689-8.52T202.615-124.417Z" transform="translate(-755.728 -2581.851)" fill="#f4900e"/><path d="M393.922,196.75H105.246q-.481-.322-.961-.646a261.625,261.625,0,0,1-38.461-31.733A261.657,261.657,0,0,1,34.092,125.91,259.765,259.765,0,0,1,10.131,81.767,259.086,259.086,0,0,1,0,53.252a77.944,77.944,0,0,1,146.064-4.865,38.584,38.584,0,0,1,57.176,7.055,77.455,77.455,0,0,1,127.467-5.067A48.522,48.522,0,0,1,389.3,21.2a47.885,47.885,0,0,1,11.858,5.244,49.419,49.419,0,0,1,17.476,18.5A57.813,57.813,0,0,1,444.2,38.819a58.434,58.434,0,0,1,50.352,28.739c-1.7,4.78-3.552,9.56-5.518,14.209a259.873,259.873,0,0,1-23.961,44.144,261.714,261.714,0,0,1-31.733,38.461A261.668,261.668,0,0,1,394.883,196.1q-.479.324-.96.646h0Z" transform="translate(-365.157 -2799.298) rotate(180)" fill="#ffe6a8"/><path d="M433.272,76.433h0ZM433.273,76.433ZM0,76.433c.431-.65.806-1.208,1.144-1.708A261.318,261.318,0,0,1,71.338,4.532q.479-.324.961-.646h1.277A31.574,31.574,0,0,1,76.5,2.47,31.219,31.219,0,0,1,88.727,0H346.055a31.342,31.342,0,0,1,16.6,4.734h.216a261.627,261.627,0,0,1,38.16,31.53c2.583,2.583,5.151,5.261,7.63,7.96h-.634a261.467,261.467,0,0,1,24.1,30.5c.382.565.767,1.139,1.143,1.706l0,0Z" transform="translate(-831.379 -2999.934)" fill="url(#a)"/><ellipse cx="9.5" cy="19" rx="9.5" ry="19" transform="translate(-811 -2802)" fill="#ffe6a8" opacity="0.999"/><ellipse cx="9.5" cy="19" rx="9.5" ry="19" transform="translate(-781 -2762)" fill="#ffe6a8" opacity="0.999"/><ellipse cx="5" cy="9.5" rx="5" ry="9.5" transform="translate(-811 -2724)" fill="#ffe6a8" opacity="0.999"/><ellipse cx="9.5" cy="19" rx="9.5" ry="19" transform="translate(-431 -2752)" fill="#ffe6a8"/><ellipse cx="9.5" cy="19" rx="9.5" ry="19" transform="translate(-477 -2783)" fill="#ffe6a8"/><ellipse cx="5" cy="9.5" rx="5" ry="9.5" transform="translate(-458 -2682)" fill="#ffe6a8"/><path d="M360.515,168.448a77.847,77.847,0,0,1-12.023-20.083,38.585,38.585,0,0,1-57.177-7.055A77.8,77.8,0,0,1,278.8,156.425q-.849.8-1.721,1.564a79.215,79.215,0,0,0-20.052-2.2q-14.715,0-20.138,2.324-8.132,3.873-8.132,16.653v2.6q-1.509.06-3.02.061a77.553,77.553,0,0,1-61.892-31.044,48.547,48.547,0,0,1-7.317,12.733q-.5.626-1.018,1.234a6.987,6.987,0,0,0-3.818-1.072,45.209,45.209,0,0,0-9.1,1.355,45.8,45.8,0,0,1-9.488,1.355q-8.907,0-14.909-7.358t-6-18.2q0-12.78,7.552-20.719t19.944-7.939h1.549a6.338,6.338,0,0,0,1.549.387l27.5,2.711q11.618,1.162,30.982,1.162,15.1,0,24.01-.775l26.334-2.323q8.907-.775,25.947-.775,25.56,0,46.085,5.422a61.384,61.384,0,0,1,33.3,21.494,57.2,57.2,0,0,1,12.78,36.6q0,3.065-.247,5.969A77.732,77.732,0,0,1,360.515,168.448Z" transform="translate(-859.713 -2996.048)" fill="#efc58b"/><path d="M433.272,76.433h0ZM433.273,76.433ZM0,76.433c.431-.65.806-1.208,1.144-1.708A261.318,261.318,0,0,1,71.338,4.532q.479-.324.961-.646h1.277A31.574,31.574,0,0,1,76.5,2.47,31.219,31.219,0,0,1,88.727,0H346.055a31.342,31.342,0,0,1,16.6,4.734h.216a261.627,261.627,0,0,1,38.16,31.53c2.583,2.583,5.151,5.261,7.63,7.96h-.634a261.467,261.467,0,0,1,24.1,30.5c.382.565.767,1.139,1.143,1.706l0,0Z" transform="translate(-831.379 -2999.934)" fill="none"/></g><path d="M94.247,76.5H84.611l.028-.042.016-.024h-.034c.455-.686.834-1.248,1.144-1.708A261.316,261.316,0,0,1,155.959,4.532q.479-.324.961-.646H158.2c.3-.168.62-.334.962-.509.636-.322,1.295-.627,1.958-.907A31.217,31.217,0,0,1,173.348,0H430.676a31.342,31.342,0,0,1,16.6,4.734h.216a261.612,261.612,0,0,1,38.16,31.53c2.588,2.588,5.155,5.266,7.63,7.961h-.635a261.781,261.781,0,0,1,24.1,30.5c.365.539.749,1.113,1.143,1.706l-.548,0,.022.033.021.032-9.428,0-2.3-3.676a254.663,254.663,0,0,0-18.909-23.186l-6.475-7.429-.14-.14-.021-.021-.126-.126a253.76,253.76,0,0,0-34.979-29.186h-.027l-1.942-1.21A23.331,23.331,0,0,0,430.676,8H173.348a23.269,23.269,0,0,0-9.117,1.839c-.5.209-.989.439-2.174,1.054l-1.8.993h-.885A253.343,253.343,0,0,0,94.247,76.5Z" transform="translate(-576 -3052)" fill="#efc58b"/><path d="M360,696.684a261.871,261.871,0,0,1-52.4-5.282,258.578,258.578,0,0,1-92.97-39.121,260.772,260.772,0,0,1-94.2-114.393,258.725,258.725,0,0,1-15.15-48.8,262.591,262.591,0,0,1-.52-102.185,258.437,258.437,0,0,1,35.418-89.123c1.127-1.779,2.282-3.554,3.431-5.275h9.636l-.36.519-2.58,3.86c-1.125,1.683-2.258,3.424-3.368,5.176a252.147,252.147,0,1,0,426.124,0c-1.112-1.755-2.245-3.5-3.369-5.177L566.96,292.5h9.429c1.153,1.726,2.307,3.5,3.431,5.275A259.873,259.873,0,0,1,360,696.684Z" transform="translate(-635 -3268)" fill="#ffac32"/></g></svg>