<svg xmlns="http://www.w3.org/2000/svg" width="520" height="520" viewBox="0 0 520 520"><g transform="translate(-592 -468)"><g transform="translate(592 468)"><path d="M0,260C0,116.406,116.406,0,260,0S520,116.406,520,260,403.594,520,260,520-.005,403.59,0,260Z" fill="#0099bf" fill-rule="evenodd"/><path d="M133.59,168.927v51.626H91.916v42.3H133.59v34.21H91.916v42.3H133.59v94.545h60.344V301.352l88.325,126.336,88.325-126.336V433.908h60.334V339.363h41.674v-42.3H430.917v-34.21h41.674v-42.3H430.917V168.934H388.259L281.367,320.666,176.241,168.927Z" transform="translate(-22.874 -42.038)" fill="#fff" fill-rule="evenodd"/></g></g></svg>