<svg xmlns="http://www.w3.org/2000/svg" width="501" height="501" viewBox="0 0 501 501"><path d="M250,500a251.849,251.849,0,0,1-50.384-5.079A248.63,248.63,0,0,1,110.223,457.3,250.73,250.73,0,0,1,19.646,347.311,248.744,248.744,0,0,1,5.079,300.384a252.44,252.44,0,0,1,0-100.767A248.632,248.632,0,0,1,42.7,110.223,250.729,250.729,0,0,1,152.689,19.646,248.741,248.741,0,0,1,199.616,5.079a252.44,252.44,0,0,1,100.767,0A248.632,248.632,0,0,1,389.778,42.7a250.73,250.73,0,0,1,90.577,109.993,248.734,248.734,0,0,1,14.567,46.928,252.44,252.44,0,0,1,0,100.767A248.63,248.63,0,0,1,457.3,389.778a250.732,250.732,0,0,1-109.993,90.577,248.736,248.736,0,0,1-46.928,14.567A251.846,251.846,0,0,1,250,500Zm84.151-170.958a1.034,1.034,0,0,1,.651.231c1.851,1.525,3.556,2.855,5.211,4.064a1.069,1.069,0,0,1-.091,1.772,171.4,171.4,0,0,1-26.056,12.377,1.062,1.062,0,0,0-.567,1.485,222.851,222.851,0,0,0,17.021,27.7,1.058,1.058,0,0,0,.86.445,1.072,1.072,0,0,0,.312-.048,275.634,275.634,0,0,0,83.379-42.1,1.069,1.069,0,0,0,.437-.769c.861-8.9,1.34-17.832,1.423-26.539.083-8.614-.219-17.254-.9-25.681-.67-8.332-1.727-16.693-3.141-24.851-1.4-8.061-3.183-16.152-5.309-24.048-2.1-7.8-4.589-15.63-7.4-23.272-2.776-7.547-5.944-15.125-9.415-22.524A313.692,313.692,0,0,0,366,144.368a.847.847,0,0,0-.41-.41A275.171,275.171,0,0,0,297.7,122.9a1.028,1.028,0,0,0-1.094.515,192.293,192.293,0,0,0-8.468,17.366,253.875,253.875,0,0,0-76.245,0A176.392,176.392,0,0,0,203.3,123.42a1.068,1.068,0,0,0-1.094-.515,274.37,274.37,0,0,0-67.862,21.053.965.965,0,0,0-.45.384c-5.329,7.963-10.3,16.089-14.768,24.152-4.385,7.91-8.418,15.989-11.986,24.012-3.5,7.86-6.646,15.9-9.365,23.882-2.66,7.814-4.983,15.808-6.9,23.76-1.878,7.77-3.427,15.726-4.606,23.649-1.149,7.726-1.98,15.649-2.468,23.546-.475,7.686-.641,15.577-.491,23.453.145,7.646.591,15.509,1.325,23.37a1.151,1.151,0,0,0,.437.781,276.567,276.567,0,0,0,83.281,42.1,1.081,1.081,0,0,0,1.172-.385,198.08,198.08,0,0,0,17.034-27.71,1.055,1.055,0,0,0-.579-1.465,182.713,182.713,0,0,1-26.016-12.377,1.068,1.068,0,0,1-.1-1.772c1.83-1.366,3.568-2.729,5.165-4.051a1.032,1.032,0,0,1,.654-.234,1.02,1.02,0,0,1,.421.09,209.729,209.729,0,0,0,41.631,14.019,196.407,196.407,0,0,0,42.417,4.673,194.761,194.761,0,0,0,42.3-4.673,204.859,204.859,0,0,0,41.268-14.019A1.02,1.02,0,0,1,334.151,329.042Zm-28.629-32.756a26.835,26.835,0,0,1-11.616-2.647,30.12,30.12,0,0,1-9.53-7.212,34.14,34.14,0,0,1-6.448-10.686,36.693,36.693,0,0,1-2.371-13.067,37.123,37.123,0,0,1,2.335-13.067,33.926,33.926,0,0,1,6.389-10.686,29.774,29.774,0,0,1,9.518-7.212,27.146,27.146,0,0,1,11.723-2.647,28.379,28.379,0,0,1,20.275,8.711,33.1,33.1,0,0,1,7.181,11.086,35.763,35.763,0,0,1,2.508,13.815,37.331,37.331,0,0,1-2.313,13.067,33.8,33.8,0,0,1-6.357,10.686A28.227,28.227,0,0,1,305.522,296.286Zm-110.822,0a26.832,26.832,0,0,1-11.615-2.647,30.121,30.121,0,0,1-9.53-7.212,34.141,34.141,0,0,1-6.448-10.686,36.694,36.694,0,0,1-2.371-13.067,37.123,37.123,0,0,1,2.335-13.067,33.926,33.926,0,0,1,6.389-10.686,29.774,29.774,0,0,1,9.518-7.212,27.144,27.144,0,0,1,11.722-2.647,28.38,28.38,0,0,1,20.275,8.711,33.1,33.1,0,0,1,7.182,11.086,35.766,35.766,0,0,1,2.508,13.815,37.076,37.076,0,0,1-2.329,13.067,33.9,33.9,0,0,1-6.388,10.686,29.776,29.776,0,0,1-9.521,7.212A27.167,27.167,0,0,1,194.7,296.286Z" transform="translate(0.5 0.5)" stroke="#707070" stroke-width="1"/></svg>