<svg xmlns="http://www.w3.org/2000/svg" width="501" height="501.011" viewBox="0 0 501 501.011"><path d="M334,7399c138.075,0,250,114.749,250,256.326,0,113.233-71.55,209.263-170.825,243.2C400.5,7901.042,396,7893.058,396,7886.214c0-8.453.3-36.046.3-70.343,0-23.89-8-39.5-16.975-47.453C435,7762.074,493.5,7740.387,493.5,7641.935c0-27.984-9.7-50.828-25.75-68.8,2.6-6.469,11.175-32.547-2.45-67.843,0,0-20.95-6.875-68.675,26.281a231.487,231.487,0,0,0-125.2,0c-47.775-33.156-68.775-26.281-68.775-26.281-13.575,35.3-5,61.375-2.425,67.843-15.975,17.968-25.75,40.812-25.75,68.8,0,98.218,58.375,120.2,113.9,126.686-7.15,6.406-13.625,17.7-15.875,34.266-14.25,6.562-50.45,17.89-72.75-21.281,0,0-13.225-24.64-38.325-26.437,0,0-24.375-.328-1.7,15.578,0,0,16.375,7.875,27.75,37.5,0,0,14.675,45.75,84.225,30.25.125,21.421.35,41.625.35,47.718,0,6.781-4.6,14.7-17.075,12.328C155.625,7864.667,84,7768.574,84,7655.326,84,7513.749,195.95,7399,334,7399" transform="translate(-83.5 -7398.5)" stroke="#707070" stroke-width="1" fill-rule="evenodd"/></svg>