<svg xmlns="http://www.w3.org/2000/svg" width="500" height="500" viewBox="0 0 500 500"><path d="M250,500a251.849,251.849,0,0,1-50.384-5.079A248.63,248.63,0,0,1,110.223,457.3,250.73,250.73,0,0,1,19.646,347.311,248.744,248.744,0,0,1,5.079,300.384a252.44,252.44,0,0,1,0-100.767A248.632,248.632,0,0,1,42.7,110.223,250.729,250.729,0,0,1,152.689,19.646,248.741,248.741,0,0,1,199.616,5.079a252.44,252.44,0,0,1,100.767,0A248.632,248.632,0,0,1,389.778,42.7a250.73,250.73,0,0,1,90.577,109.993,248.734,248.734,0,0,1,14.567,46.928,252.44,252.44,0,0,1,0,100.767A248.63,248.63,0,0,1,457.3,389.778a250.732,250.732,0,0,1-109.993,90.577,248.736,248.736,0,0,1-46.928,14.567A251.846,251.846,0,0,1,250,500Zm55.966-313.209h0c1.664,0,2.746.574,3.214,1.705.686,1.657.017,4.518-1.883,8.057a41.536,41.536,0,0,1-6.836,9.178c-22.492,22.5-59.228,57.482-89.334,85.081-5.283,4.623-7.95,9.4-7.925,14.2a14.487,14.487,0,0,0,2.279,7.517,23.415,23.415,0,0,0,4.8,5.512c7.447,6.3,20.184,15.607,37.856,27.657,14.679,10.009,29.757,19.861,38.767,25.747,5.159,3.371,8.568,5.6,9.307,6.152a116.559,116.559,0,0,0,17.747,10.446c7.469,3.456,14.107,5.208,19.728,5.208,5.54,0,10.1-1.719,13.561-5.11a22.482,22.482,0,0,0,4.774-7.195,42.637,42.637,0,0,0,2.895-11.006l21.27-133.576c1.882-12.464,3.729-24.443,5.515-36.028,4.656-30.195,8.333-54.044,8.947-62.666.6-6.815-.6-11.922-3.586-15.178-2.595-2.834-6.506-4.271-11.627-4.271a40.678,40.678,0,0,0-12.862,2.429l-3.473,1.438C206.509,185.285,112.069,224.3,78.4,238.06c-7.04,2.747-12.337,5.669-15.743,8.685-2.825,2.5-4.381,5.089-4.625,7.693a8.231,8.231,0,0,0,.688,4.076,12.116,12.116,0,0,0,2.056,3.158,16.32,16.32,0,0,0,3.162,2.765c.3.1,29.972,10.267,55.3,17.866a70.893,70.893,0,0,0,20.274,3.2,46.517,46.517,0,0,0,14.077-2.023,23.52,23.52,0,0,0,4.785-2.023l119.964-80.828A149.835,149.835,0,0,1,296.2,189.888C300.437,187.833,303.724,186.791,305.966,186.791Z"/></svg>