<svg xmlns="http://www.w3.org/2000/svg" width="500" height="500" viewBox="0 0 500 500"><path d="M500.5,251.5c0,138.071-111.929,250-250,250S.5,389.571.5,251.5s111.929-250,250-250S500.5,113.429,500.5,251.5Zm-92.812.188A157.188,157.188,0,1,0,250.5,408.875,157.187,157.187,0,0,0,407.688,251.688Zm-230.719-12.5H118.906a132.406,132.406,0,0,1,80.156-109.312q3.125-1.312,6.25-2.469a240.688,240.688,0,0,0-28.344,111.781Zm0,25a240.626,240.626,0,0,0,28.375,111.781q-3.188-1.156-6.281-2.469a132.031,132.031,0,0,1-80.156-109.312Zm25-25a282.5,282.5,0,0,1,5.094-43.812,192.625,192.625,0,0,1,13.906-44.219C230,131.938,241.594,119.5,250.5,119.5s20.5,12.438,29.531,31.656a193.126,193.126,0,0,1,13.906,44.219,283.678,283.678,0,0,1,5.094,43.812Zm97.062,25A283.527,283.527,0,0,1,293.937,308a193.344,193.344,0,0,1-13.906,44.219c-9.031,19.25-20.625,31.656-29.531,31.656s-20.5-12.406-29.531-31.656A192.877,192.877,0,0,1,207.062,308a282.372,282.372,0,0,1-5.094-43.812Zm44.938-105.969a131.593,131.593,0,0,1,38.125,80.969H324.031a240.562,240.562,0,0,0-28.375-111.781q3.187,1.156,6.281,2.5a131.5,131.5,0,0,1,42.031,28.313ZM324.031,264.188h58.062A132.437,132.437,0,0,1,301.937,373.5q-3.125,1.344-6.25,2.5A240.531,240.531,0,0,0,324.031,264.188Z" transform="translate(-0.5 -1.5)"/></svg>