<svg xmlns="http://www.w3.org/2000/svg" width="501" height="501" viewBox="0 0 501 501"><path d="M250,500a251.849,251.849,0,0,1-50.384-5.079A248.63,248.63,0,0,1,110.223,457.3,250.73,250.73,0,0,1,19.646,347.311,248.744,248.744,0,0,1,5.079,300.384a252.44,252.44,0,0,1,0-100.767A248.632,248.632,0,0,1,42.7,110.223,250.729,250.729,0,0,1,152.689,19.646,248.741,248.741,0,0,1,199.616,5.079a252.44,252.44,0,0,1,100.767,0A248.632,248.632,0,0,1,389.778,42.7a250.73,250.73,0,0,1,90.577,109.993,248.734,248.734,0,0,1,14.567,46.928,252.44,252.44,0,0,1,0,100.767A248.63,248.63,0,0,1,457.3,389.778a250.732,250.732,0,0,1-109.993,90.577,248.736,248.736,0,0,1-46.928,14.567A251.846,251.846,0,0,1,250,500ZM227.594,281.1h0l85.061,113.737h92.1L278.53,226.077,390.46,105.157H363.395L266.439,209.9,188.1,105.157H96L215.5,264.933,95.247,394.839h27.066L227.594,281.1Zm137.352,93.8v0H322.637L135.8,125.092h42.31L364.947,374.9Z" transform="translate(0.5 0.5)" stroke="#fff" stroke-width="1"/></svg>